<?xml version="1.0" encoding="UTF-8" standalone="no"?>
<!-- Created with Inkscape (http://www.inkscape.org/) -->
<svg
   xmlns:dc="http://purl.org/dc/elements/1.1/"
   xmlns:cc="http://web.resource.org/cc/"
   xmlns:rdf="http://www.w3.org/1999/02/22-rdf-syntax-ns#"
   xmlns:svg="http://www.w3.org/2000/svg"
   xmlns="http://www.w3.org/2000/svg"
   xmlns:xlink="http://www.w3.org/1999/xlink"
   xmlns:sodipodi="http://inkscape.sourceforge.net/DTD/sodipodi-0.dtd"
   xmlns:inkscape="http://www.inkscape.org/namespaces/inkscape"
   width="64"
   height="64"
   id="svg1307"
   sodipodi:version="0.32"
   inkscape:version="0.43"
   version="1.0"
   sodipodi:docbase="/home/dg/shared/workspace/pm-website/src"
   sodipodi:docname="logo.svg">
  <defs
     id="defs1309">
    <linearGradient
       id="linearGradient5731">
      <stop
         style="stop-color:#7c7c7c;stop-opacity:1;"
         offset="0"
         id="stop5733" />
      <stop
         style="stop-color:#dddddd;stop-opacity:1;"
         offset="1"
         id="stop5735" />
    </linearGradient>
    <linearGradient
       id="linearGradient3072">
      <stop
         style="stop-color:#2420df;stop-opacity:1;"
         offset="0"
         id="stop3074" />
      <stop
         style="stop-color:#bcbbff;stop-opacity:1;"
         offset="1"
         id="stop3076" />
    </linearGradient>
    <linearGradient
       id="linearGradient3062">
      <stop
         style="stop-color:#002aff;stop-opacity:1;"
         offset="0"
         id="stop3064" />
      <stop
         id="stop3070"
         offset="0.93023258"
         style="stop-color:#002aff;stop-opacity:0.68627451;" />
      <stop
         style="stop-color:#002aff;stop-opacity:1;"
         offset="1"
         id="stop3066" />
    </linearGradient>
    <linearGradient
       id="linearGradient3054">
      <stop
         style="stop-color:#494949;stop-opacity:1;"
         offset="0"
         id="stop3056" />
      <stop
         style="stop-color:#6c6c6c;stop-opacity:1;"
         offset="1"
         id="stop3058" />
    </linearGradient>
    <linearGradient
       inkscape:collect="always"
       xlink:href="#linearGradient3054"
       id="linearGradient3060"
       x1="0"
       y1="31.998454"
       x2="64"
       y2="31.998454"
       gradientUnits="userSpaceOnUse" />
    <radialGradient
       inkscape:collect="always"
       xlink:href="#linearGradient3062"
       id="radialGradient3068"
       cx="36.296875"
       cy="22.653891"
       fx="36.296875"
       fy="22.653891"
       r="11.796875"
       gradientTransform="matrix(1,0,0,1.004934,0,-0.111769)"
       gradientUnits="userSpaceOnUse" />
    <radialGradient
       inkscape:collect="always"
       xlink:href="#linearGradient3072"
       id="radialGradient3078"
       cx="36.296875"
       cy="22.653891"
       fx="36.296875"
       fy="22.653891"
       r="11.796875"
       gradientTransform="matrix(1,0,0,1.004934,0,-0.111769)"
       gradientUnits="userSpaceOnUse" />
    <linearGradient
       inkscape:collect="always"
       xlink:href="#linearGradient5731"
       id="linearGradient5737"
       x1="0"
       y1="88"
       x2="28"
       y2="116"
       gradientUnits="userSpaceOnUse" />
  </defs>
  <sodipodi:namedview
     id="base"
     pagecolor="#ffffff"
     bordercolor="#666666"
     borderopacity="1.0"
     inkscape:pageopacity="0.0"
     inkscape:pageshadow="2"
     inkscape:zoom="3.8906248"
     inkscape:cx="86.765006"
     inkscape:cy="-26.533861"
     inkscape:current-layer="layer1"
     showgrid="true"
     inkscape:document-units="px"
     inkscape:grid-bbox="true"
     gridempspacing="8"
     inkscape:grid-points="true"
     inkscape:window-width="1016"
     inkscape:window-height="675"
     inkscape:window-x="0"
     inkscape:window-y="0" />
  <metadata
     id="metadata1312">
    <rdf:RDF>
      <cc:Work
         rdf:about="">
        <dc:format>image/svg+xml</dc:format>
        <dc:type
           rdf:resource="http://purl.org/dc/dcmitype/StillImage" />
      </cc:Work>
    </rdf:RDF>
  </metadata>
  <g
     id="layer1"
     inkscape:label="Layer 1"
     inkscape:groupmode="layer">
    <path
       style="fill:#000000;fill-opacity:1;fill-rule:evenodd;stroke:#000000;stroke-width:0;stroke-linecap:butt;stroke-linejoin:miter;stroke-miterlimit:4;stroke-opacity:1"
       d="M 103.19059,0 C 100.61965,0.065207796 98.108129,0.42444057 95.721842,1.0625 L 104.00309,32 L 104.00309,0 L 103.19059,0 z M 104.00309,32 L 120.00309,4.28125 L 119.94059,4.25 C 119.82891,4.1857593 119.70936,4.1254264 119.59684,4.0625 C 119.42806,3.9681105 119.26749,3.8726528 119.09684,3.78125 C 116.96301,2.6383035 114.67235,1.7010194 112.28434,1.0625 L 104.00309,32 z M 104.00309,32 L 131.72184,16 L 131.65934,15.90625 C 131.59877,15.802414 131.53354,15.69684 131.47184,15.59375 L 131.47184,15.5625 C 131.43875,15.507302 131.41151,15.461231 131.37809,15.40625 C 130.04133,13.206993 128.43809,11.184999 126.62809,9.375 L 104.00309,32 z M 104.00309,32 L 136.00309,32 C 136.00309,31.724 136.01005,31.461833 136.00309,31.1875 C 135.93788,28.616556 135.57865,26.105036 134.94059,23.71875 L 104.00309,32 z M 104.00309,32 L 131.72184,48 C 131.79866,47.867165 131.86564,47.727781 131.94059,47.59375 C 132.03498,47.42497 132.13044,47.264395 132.22184,47.09375 C 133.36479,44.95992 134.30207,42.669256 134.94059,40.28125 L 104.00309,32 z M 104.00309,32 L 120.00309,59.71875 C 120.14161,59.638642 120.27214,59.550864 120.40934,59.46875 L 120.44059,59.46875 C 120.49579,59.435654 120.54186,59.408419 120.59684,59.375 C 122.7961,58.038243 124.81809,56.434999 126.62809,54.625 L 104.00309,32 z M 104.00309,32 L 104.00309,64 L 104.81559,64 C 107.38654,63.934792 109.89806,63.575559 112.28434,62.9375 L 104.00309,32 z M 104.00309,32 L 88.003092,59.71875 C 88.135927,59.79557 88.275311,59.862544 88.409342,59.9375 C 88.578122,60.03189 88.738697,60.127347 88.909342,60.21875 C 91.043173,61.361696 93.333835,62.298981 95.721842,62.9375 L 104.00309,32 z M 104.00309,32 L 76.284342,48 C 76.336504,48.090197 76.387578,48.160362 76.440592,48.25 L 76.534342,48.40625 C 76.571803,48.46884 76.590218,48.531438 76.628092,48.59375 C 77.96485,50.793007 79.568092,52.815001 81.378092,54.625 L 104.00309,32 z M 104.00309,32 L 72.003092,32 C 72.003092,32.276 71.996134,32.538167 72.003092,32.8125 C 72.0683,35.383444 72.427533,37.894964 73.065592,40.28125 L 104.00309,32 z M 104.00309,32 L 76.284342,16 C 76.207523,16.132835 76.140549,16.272219 76.065592,16.40625 C 75.971203,16.57503 75.875745,16.735605 75.784342,16.90625 C 74.641396,19.04008 73.704112,21.330744 73.065592,23.71875 L 104.00309,32 z M 104.00309,32 L 88.003092,4.28125 C 87.912895,4.3334117 87.842731,4.384486 87.753092,4.4375 L 87.565592,4.53125 C 87.510394,4.5643463 87.464323,4.5915811 87.409342,4.625 C 85.210084,5.9617574 83.188092,7.5650006 81.378092,9.375 L 104.00309,32 z "
       id="path1363" />
    <path
       id="path6100"
       style="fill:#f40000;fill-opacity:1;fill-rule:evenodd;stroke:none;stroke-width:1px;stroke-linecap:butt;stroke-linejoin:miter;stroke-opacity:1"
       d="M -24.856702,16.262071 L -13,14.210101 L -15.677276,8.685444 L -24.856702,16.262071 z M -24.856702,16.262071 L -17.151293,25.504291 L -13.705438,20.423374 L -24.856702,16.262071 z M -24.856702,16.262071 L -20.705409,4.967881 L -26.82854,4.524141 L -24.856702,16.262071 z M -24.856702,16.262071 L -29.007995,27.556261 L -22.884864,28 L -24.856702,16.262071 z M -24.856702,16.262071 L -36.713404,18.314041 L -34.036128,23.838697 L -24.856702,16.262071 z M -24.856702,16.262071 L -32.562111,7.019851 L -36.007966,12.100768 L -24.856702,16.262071 z " />
    <g
       id="g4846"
       inkscape:export-filename="/tmp/logo.png"
       inkscape:export-xdpi="698.18182"
       inkscape:export-ydpi="698.18182">
      <path
         transform="translate(2,1.201187)"
         d="M 37.3125,11.34375 C 36.022893,11.228164 34.666556,11.333055 33.34375,11.6875 C 33.20202,11.725476 33.076497,11.769529 32.9375,11.8125 C 32.850626,11.839357 32.742351,11.845469 32.65625,11.875 C 32.283149,12.002964 31.944148,12.184683 31.59375,12.34375 L 32.96875,15.34375 C 31.645466,15.944469 30.551352,16.891983 29.75,18.03125 L 27.03125,16.09375 C 25.900677,17.694288 25.190326,19.57667 25,21.5625 L 28.3125,21.90625 C 28.226725,22.825023 28.309802,23.775669 28.5625,24.71875 C 28.68483,25.175296 28.83867,25.616757 29.03125,26.03125 L 26,27.40625 C 26.842741,29.230313 28.148353,30.756326 29.71875,31.875 L 31.625,29.1875 C 32.772621,30.005009 34.133023,30.465627 35.5625,30.59375 L 35.28125,33.96875 C 36.570858,34.084336 37.895943,33.948195 39.21875,33.59375 C 39.832911,33.429188 40.439363,33.223257 41,32.96875 L 39.59375,29.9375 C 40.91703,29.336781 42.042397,28.420517 42.84375,27.28125 L 45.5625,29.1875 C 46.693073,27.586964 47.403424,25.735831 47.59375,23.75 L 44.25,23.40625 C 44.335775,22.487476 44.283948,21.536831 44.03125,20.59375 C 43.908921,20.137206 43.723831,19.695744 43.53125,19.28125 L 46.5625,17.90625 C 45.71976,16.082188 44.445397,14.524925 42.875,13.40625 L 40.9375,16.125 C 39.789879,15.30749 38.429477,14.815622 37,14.6875 L 37.3125,11.34375 z "
         id="path3957"
         style="fill:#0515ff;fill-opacity:0.2311828;stroke:#0110f3;stroke-width:1;stroke-linecap:round;stroke-linejoin:round;stroke-miterlimit:4;stroke-dasharray:none;stroke-opacity:0.1935484"
         inkscape:original="M 37.3125 11.34375 C 36.022893 11.228164 34.666556 11.333055 33.34375 11.6875 C 33.20202 11.725476 33.076497 11.769529 32.9375 11.8125 C 32.850626 11.839357 32.742351 11.845469 32.65625 11.875 C 32.283149 12.002964 31.944148 12.184683 31.59375 12.34375 L 32.96875 15.34375 C 31.645466 15.944469 30.551352 16.891983 29.75 18.03125 L 27.03125 16.09375 C 25.900677 17.694288 25.190326 19.57667 25 21.5625 L 28.3125 21.90625 C 28.226725 22.825023 28.309802 23.775669 28.5625 24.71875 C 28.68483 25.175296 28.83867 25.616757 29.03125 26.03125 L 26 27.40625 C 26.842741 29.230313 28.148353 30.756326 29.71875 31.875 L 31.625 29.1875 C 32.772621 30.005009 34.133023 30.465627 35.5625 30.59375 L 35.28125 33.96875 C 36.570858 34.084336 37.895943 33.948195 39.21875 33.59375 C 39.832911 33.429188 40.439363 33.223257 41 32.96875 L 39.59375 29.9375 C 40.91703 29.336781 42.042397 28.420517 42.84375 27.28125 L 45.5625 29.1875 C 46.693073 27.586964 47.403424 25.735831 47.59375 23.75 L 44.25 23.40625 C 44.335775 22.487476 44.283948 21.536831 44.03125 20.59375 C 43.908921 20.137206 43.723831 19.695744 43.53125 19.28125 L 46.5625 17.90625 C 45.71976 16.082188 44.445397 14.524925 42.875 13.40625 L 40.9375 16.125 C 39.789879 15.30749 38.429477 14.815622 37 14.6875 L 37.3125 11.34375 z "
         inkscape:radius="0"
         sodipodi:type="inkscape:offset" />
      <path
         sodipodi:nodetypes="ccccccccccccssccccsccccccccccssccssccccccccsccscccccccssccccccccccssccccsscccccccccccssssccssssc"
         d="M 33.033569,10 C 31.231352,10.071649 26.569793,9 27.783569,10.8125 L 28.814819,14.65625 C 30.464823,14.215237 32.2139,14 34.002319,14 L 34.002319,10 L 34,9 C 33.879492,9.003056 33.153717,9.995223 33.033569,10 z M 40.221069,10.8125 L 39.189819,14.65625 C 40.901844,15.11384 42.50347,15.819279 44.00232,16.6875 L 46.00232,13.21875 L 45.93982,13.1875 C 45.85606,13.139319 45.7742,13.109695 45.68982,13.0625 C 45.56324,12.991708 46.12798,12.068551 46,12 C 44.39969,11.142789 41.46582,10 40.221069,10.8125 z M 21.971069,13.21875 C 21.914761,13.252833 20.058823,11.542769 20,11.57756 L 21.658569,13.40625 C 21.617172,13.431072 19.039923,12.467741 19,12.440637 C 16.836565,10.971888 15,15 17.033569,17.03125 L 19.877319,19.875 C 21.107553,18.644766 22.487077,17.565217 24.002319,16.6875 L 22.002319,13.21875 C 21.993863,13.22364 21.979113,13.213881 21.971069,13.21875 z M 50.97107,17.03125 L 48.12732,19.875 C 49.35755,21.105234 50.4371,22.484758 51.31482,24 L 54.78357,22 L 54.75232,21.9375 C 54.70689,21.859623 55.04627,21.636304 55,21.558986 C 54.97518,21.517587 54.49611,21.592919 54.53357,21.5625 C 57,19.559644 53,16.493167 50.97107,17.03125 z M 13.221069,22 C 13.163458,22.099627 12,22 13.033569,22.3125 C 13.172395,22.354474 12.06855,22.334615 12,22.4626 C 11.142826,24.062972 11.26244,25.990246 10.783569,27.78125 L 14.658569,28.8125 C 15.116159,27.100475 15.821598,25.49885 16.689819,24 L 13.221069,22 z M 57.18982,27.78125 L 53.34607,28.8125 C 53.78708,30.462504 54.00232,32.211581 54.00232,34 L 58.00232,34 C 58.00232,33.793 58.00754,33.58075 58.00232,33.375 C 57.95341,31.446792 57.66835,29.570965 57.18982,27.78125 z M 10.002319,34 C 10.002319,34.207 9.997101,34.41925 10.002319,34.625 C 10.051223,36.553208 10.305044,38.429035 10.783569,40.21875 L 14.658569,39.1875 C 14.217556,37.537496 14.002319,35.788419 14.002319,34 L 10.002319,34 z M 53.34607,39.1875 C 52.88848,40.899525 52.18304,42.50115 51.31482,44 L 54.78357,46 C 54.84118,45.900373 54.88361,45.788023 54.93982,45.6875 C 55.01061,45.560916 55.05153,45.214409 55.15857,45.3125 C 57,47 60.56637,41.559955 57.18982,40.21875 L 53.34607,39.1875 z M 16.689819,44 L 13.221069,46 C 13.260189,46.067647 16,53 17.033569,50.96875 L 19.877319,48.125 C 18.647085,46.894766 17.567536,45.515242 16.689819,44 z M 48.12732,48.125 C 46.89709,49.355234 45.51756,50.434783 44.00232,51.3125 L 46.00232,54.78125 C 46.10621,54.72117 46.21192,54.655336 46.31482,54.59375 C 46.35622,54.568928 46.39859,54.556315 46.43982,54.53125 C 48.0892,53.528683 49.61362,52.326249 50.97107,50.96875 L 48.12732,48.125 z M 24.002319,51.3125 L 22.002319,54.78125 C 22.101941,54.838865 22.2143,54.881283 22.314819,54.9375 C 22.4414,55.008293 22.787913,55.049221 22.689819,55.15625 C 21,57 28.530788,60 27.783569,57.1875 L 28.814819,53.34375 C 27.102794,52.88616 25.501169,52.180721 24.002319,51.3125 z M 39.127319,53.34375 C 37.494161,53.775135 35.770444,54 34.002319,54 L 34.002319,58 L 34.596069,58 C 36.524202,57.951094 38.431431,57.666044 40.221069,57.1875 L 39.189819,53.34375 C 39.171096,53.348754 39.146064,53.338799 39.127319,53.34375 z M 33.1875,2 C 15.904521,2.438354 2,16.612 2,34 C 2,51.664 16.336,66 34,66 C 51.664,66 66,51.664 66,34 C 66,16.336 51.664,2 34,2 C 33.724,2 33.461833,1.993042 33.1875,2 z M 33.21875,10 C 33.475534,9.991858 33.74125,10 34,10 C 47.248,10 58,20.752 58,34 C 58,47.248 47.248,58 34,58 C 20.752,58 10,47.248 10,34 C 10,21.01075 20.328184,10.408709 33.21875,10 z "
         style="fill:#000000;fill-opacity:0.15053765;fill-rule:nonzero;stroke:#00ff00;stroke-width:0;stroke-linecap:butt;stroke-linejoin:round;stroke-miterlimit:4;stroke-dasharray:none;stroke-opacity:1"
         id="path3080" />
      <path
         sodipodi:nodetypes="ccccccccccccssccccsccccccccccssccssccccccccsccscccccccssccccccccccssccccsscccccccccccssssccssssc"
         d="M 31.033569,8 C 29.231352,8.071649 24.569793,7 25.783569,8.8125 L 26.814819,12.65625 C 28.464823,12.215237 30.2139,12 32.002319,12 L 32.002319,8 L 32,7 C 31.879492,7.003056 31.153717,7.995223 31.033569,8 z M 38.221069,8.8125 L 37.189819,12.65625 C 38.901844,13.11384 40.503469,13.819279 42.002319,14.6875 L 44.002319,11.21875 L 43.939819,11.1875 C 43.856062,11.139319 43.774205,11.109695 43.689819,11.0625 C 43.563238,10.991708 44.127982,10.068551 44,10 C 42.399691,9.142789 39.46582,8 38.221069,8.8125 z M 19.971069,11.21875 C 19.914761,11.252833 18.058823,9.5427691 18,9.5775601 L 19.658569,11.40625 C 19.617172,11.431072 17.039923,10.467741 17,10.440637 C 14.836565,8.9718875 13,13 15.033569,15.03125 L 17.877319,17.875 C 19.107553,16.644766 20.487077,15.565217 22.002319,14.6875 L 20.002319,11.21875 C 19.993863,11.22364 19.979113,11.213881 19.971069,11.21875 z M 48.971069,15.03125 L 46.127319,17.875 C 47.357553,19.105234 48.437102,20.484758 49.314819,22 L 52.783569,20 L 52.752319,19.9375 C 52.706894,19.859623 53.046273,19.636304 53,19.558986 C 52.975183,19.517587 52.49611,19.592919 52.533569,19.5625 C 55,17.559644 51,14.493167 48.971069,15.03125 z M 11.221069,20 C 11.163458,20.099627 10,20 11.033569,20.3125 C 11.172395,20.354474 10.06855,20.334615 10,20.4626 C 9.1428261,22.062972 9.2624401,23.990246 8.7835691,25.78125 L 12.658569,26.8125 C 13.116159,25.100475 13.821598,23.49885 14.689819,22 L 11.221069,20 z M 55.189819,25.78125 L 51.346069,26.8125 C 51.787082,28.462504 52.002319,30.211581 52.002319,32 L 56.002319,32 C 56.002318,31.793 56.007539,31.58075 56.002319,31.375 C 55.953413,29.446792 55.668345,27.570965 55.189819,25.78125 z M 8.0023191,32 C 8.0023191,32.207 7.9971011,32.41925 8.0023191,32.625 C 8.0512231,34.553208 8.3050441,36.429035 8.7835691,38.21875 L 12.658569,37.1875 C 12.217556,35.537496 12.002319,33.788419 12.002319,32 L 8.0023191,32 z M 51.346069,37.1875 C 50.888479,38.899525 50.18304,40.50115 49.314819,42 L 52.783569,44 C 52.841181,43.900373 52.883609,43.788023 52.939819,43.6875 C 53.010609,43.560916 53.051531,43.214409 53.158569,43.3125 C 55,45 58.566371,39.559955 55.189819,38.21875 L 51.346069,37.1875 z M 14.689819,42 L 11.221069,44 C 11.260189,44.067647 14,51 15.033569,48.96875 L 17.877319,46.125 C 16.647085,44.894766 15.567536,43.515242 14.689819,42 z M 46.127319,46.125 C 44.897085,47.355234 43.517561,48.434783 42.002319,49.3125 L 44.002319,52.78125 C 44.106207,52.72117 44.211922,52.655336 44.314819,52.59375 C 44.356217,52.568928 44.398586,52.556315 44.439819,52.53125 C 46.089196,51.528683 47.613624,50.326249 48.971069,48.96875 L 46.127319,46.125 z M 22.002319,49.3125 L 20.002319,52.78125 C 20.101941,52.838865 20.2143,52.881283 20.314819,52.9375 C 20.4414,53.008293 20.787913,53.049221 20.689819,53.15625 C 19,55 26.530788,58 25.783569,55.1875 L 26.814819,51.34375 C 25.102794,50.88616 23.501169,50.180721 22.002319,49.3125 z M 37.127319,51.34375 C 35.494161,51.775135 33.770444,52 32.002319,52 L 32.002319,56 L 32.596069,56 C 34.524202,55.951094 36.431431,55.666044 38.221069,55.1875 L 37.189819,51.34375 C 37.171096,51.348754 37.146064,51.338799 37.127319,51.34375 z M 31.1875,0 C 13.904521,0.438354 0,14.612 0,32 C 0,49.664 14.336,64 32,64 C 49.664,64 64,49.664 64,32 C 64,14.336 49.664,0 32,0 C 31.724,0 31.461833,-0.006958 31.1875,0 z M 31.21875,8 C 31.475534,7.991858 31.74125,8 32,8 C 45.248,8 56,18.752 56,32 C 56,45.248 45.248,56 32,56 C 18.752,56 8,45.248 8,32 C 8,19.01075 18.328184,8.408709 31.21875,8 z "
         style="fill:url(#linearGradient3060);fill-opacity:1.0;fill-rule:nonzero;stroke:#00ff00;stroke-width:0;stroke-linecap:butt;stroke-linejoin:round;stroke-miterlimit:4;stroke-opacity:1;stroke-dasharray:none"
         id="path3345" />
      <path
         transform="translate(0.40625,-0.508969)"
         d="M 37.3125,11.34375 C 36.022893,11.228164 34.666556,11.333055 33.34375,11.6875 C 33.20202,11.725476 33.076497,11.769529 32.9375,11.8125 C 32.850626,11.839357 32.742351,11.845469 32.65625,11.875 C 32.283149,12.002964 31.944148,12.184683 31.59375,12.34375 L 32.96875,15.34375 C 31.645466,15.944469 30.551352,16.891983 29.75,18.03125 L 27.03125,16.09375 C 25.900677,17.694288 25.190326,19.57667 25,21.5625 L 28.3125,21.90625 C 28.226725,22.825023 28.309802,23.775669 28.5625,24.71875 C 28.68483,25.175296 28.83867,25.616757 29.03125,26.03125 L 26,27.40625 C 26.842741,29.230313 28.148353,30.756326 29.71875,31.875 L 31.625,29.1875 C 32.772621,30.005009 34.133023,30.465627 35.5625,30.59375 L 35.28125,33.96875 C 36.570858,34.084336 37.895943,33.948195 39.21875,33.59375 C 39.832911,33.429188 40.439363,33.223257 41,32.96875 L 39.59375,29.9375 C 40.91703,29.336781 42.042397,28.420517 42.84375,27.28125 L 45.5625,29.1875 C 46.693073,27.586964 47.403424,25.735831 47.59375,23.75 L 44.25,23.40625 C 44.335775,22.487476 44.283948,21.536831 44.03125,20.59375 C 43.908921,20.137206 43.723831,19.695744 43.53125,19.28125 L 46.5625,17.90625 C 45.71976,16.082188 44.445397,14.524925 42.875,13.40625 L 40.9375,16.125 C 39.789879,15.30749 38.429477,14.815622 37,14.6875 L 37.3125,11.34375 z "
         id="path8751"
         style="fill:url(#radialGradient3078);fill-opacity:1.0;stroke:url(#radialGradient3068);stroke-width:1;stroke-linecap:round;stroke-linejoin:round;stroke-miterlimit:4;stroke-dasharray:none;stroke-opacity:1"
         inkscape:original="M 37.3125 11.34375 C 36.022893 11.228164 34.666556 11.333055 33.34375 11.6875 C 33.20202 11.725476 33.076497 11.769529 32.9375 11.8125 C 32.850626 11.839357 32.742351 11.845469 32.65625 11.875 C 32.283149 12.002964 31.944148 12.184683 31.59375 12.34375 L 32.96875 15.34375 C 31.645466 15.944469 30.551352 16.891983 29.75 18.03125 L 27.03125 16.09375 C 25.900677 17.694288 25.190326 19.57667 25 21.5625 L 28.3125 21.90625 C 28.226725 22.825023 28.309802 23.775669 28.5625 24.71875 C 28.68483 25.175296 28.83867 25.616757 29.03125 26.03125 L 26 27.40625 C 26.842741 29.230313 28.148353 30.756326 29.71875 31.875 L 31.625 29.1875 C 32.772621 30.005009 34.133023 30.465627 35.5625 30.59375 L 35.28125 33.96875 C 36.570858 34.084336 37.895943 33.948195 39.21875 33.59375 C 39.832911 33.429188 40.439363 33.223257 41 32.96875 L 39.59375 29.9375 C 40.91703 29.336781 42.042397 28.420517 42.84375 27.28125 L 45.5625 29.1875 C 46.693073 27.586964 47.403424 25.735831 47.59375 23.75 L 44.25 23.40625 C 44.335775 22.487476 44.283948 21.536831 44.03125 20.59375 C 43.908921 20.137206 43.723831 19.695744 43.53125 19.28125 L 46.5625 17.90625 C 45.71976 16.082188 44.445397 14.524925 42.875 13.40625 L 40.9375 16.125 C 39.789879 15.30749 38.429477 14.815622 37 14.6875 L 37.3125 11.34375 z "
         inkscape:radius="0"
         sodipodi:type="inkscape:offset" />
      <text
         sodipodi:linespacing="125%"
         transform="scale(1.254064,0.797407)"
         id="text4836"
         y="-2.8240945"
         x="-1.3500808"
         style="font-size:15.04877472px;font-style:normal;font-weight:normal;line-height:125%;fill:#000000;fill-opacity:1;stroke:none;stroke-width:1px;stroke-linecap:butt;stroke-linejoin:miter;stroke-opacity:1;font-family:Bitstream Vera Sans"
         xml:space="preserve"><tspan
           style="font-size:15.04877663px;font-style:normal;font-variant:normal;font-weight:bold;font-stretch:normal;text-align:start;line-height:125%;writing-mode:lr-tb;text-anchor:start;font-family:Bitstream Vera Sans"
           y="-2.8240945"
           x="-1.3500808"
           id="tspan4838"
           sodipodi:role="line">PRIME</tspan></text>
      <text
         sodipodi:linespacing="125%"
         transform="scale(1.158213,0.863399)"
         id="text4840"
         y="87.827377"
         x="-0.68955791"
         style="font-size:13.8985548px;font-style:normal;font-weight:normal;line-height:125%;fill:#000000;fill-opacity:1;stroke:none;stroke-width:1px;stroke-linecap:butt;stroke-linejoin:miter;stroke-opacity:1;font-family:Bitstream Vera Sans"
         xml:space="preserve"><tspan
           style="font-size:13.89855194px;font-style:normal;font-variant:normal;font-weight:bold;font-stretch:normal;text-align:start;line-height:125%;writing-mode:lr-tb;text-anchor:start;font-family:Bitstream Vera Sans"
           y="87.827377"
           x="-0.68955791"
           id="tspan4842"
           sodipodi:role="line">MOVER</tspan></text>
    </g>
    <rect
       style="fill:url(#linearGradient5737);fill-opacity:1.0;fill-rule:nonzero;stroke:#0110f3;stroke-width:0;stroke-linecap:round;stroke-linejoin:round;stroke-miterlimit:4;stroke-dasharray:none;stroke-opacity:0.1935484"
       id="rect4856"
       width="56"
       height="56"
       x="0"
       y="88"
       inkscape:export-filename="/home/dg/shared/workspace/pm-website/src/background.png"
       inkscape:export-xdpi="822.85999"
       inkscape:export-ydpi="822.85999" />
  </g>
</svg>
